<?xml version="1.0" encoding="UTF-8" standalone="no"?>
<!-- Created with Inkscape (http://www.inkscape.org/) -->

<svg
   width="44"
   height="40"
   viewBox="0 0 11.641667 10.583333"
   version="1.1"
   id="svg2295"
   xmlns="http://www.w3.org/2000/svg"
   xmlns:svg="http://www.w3.org/2000/svg">
  <defs
     id="defs2292" />
  <g
     id="layer1">
    <path
       d="M 11.545453,0 9.380683,7.9375 6.447655,5.325348 9.262821,2.354792 5.489382,4.962631 2.886363,4.329536 Z M 6.253787,6.013741 V 8.659098 L 7.308754,7.060539 Z M 0,10.165292 C 0.487315,9.408107 0.940474,9.080024 1.413356,8.938577 L 1.525923,9.635172 C 1.206981,9.75831 0.941435,10.022893 0.580641,10.583333 Z M 5.291666,7.890351 C 4.845243,8.598958 4.450773,8.902515 4.057266,9.007369 L 4.179453,9.69817 C 4.538326,9.6135 4.911148,9.417711 5.291666,9.029038 Z M 3.437178,9.03769 C 3.0124,8.98813 2.513541,8.862086 2.023821,8.856795 L 2.137351,9.56011 C 2.557317,9.59284 3.06628,9.726083 3.562733,9.750134 Z"
       id="path46416"
       style="display:inline;fill:#ffffff;stroke-width:0.48106" />
  </g>
</svg>
