<?xml version="1.0" encoding="UTF-8" standalone="no"?>
<!-- Created with Inkscape (http://www.inkscape.org/) -->

<svg
   width="27"
   height="40"
   viewBox="0 0 7.1437502 10.583333"
   version="1.1"
   id="svg2295"
   xmlns="http://www.w3.org/2000/svg"
   xmlns:svg="http://www.w3.org/2000/svg">
  <defs
     id="defs2292" />
  <g
     id="layer1">
    <path
       d="m 3.52777,0.881936 c 1.40935,0 2.64584,1.154483 2.64584,2.470335 0,1.363927 -1.09935,3.145023 -2.64584,5.583158 C 1.98128,6.497294 0.88194,4.716198 0.88194,3.352271 c 0,-1.315852 1.23649,-2.470335 2.64583,-2.470335 M 3.52777,0 C 1.67657,0 0,1.500637 0,3.352271 0,5.203481 1.52973,7.413625 3.52777,10.583333 5.52582,7.413625 7.05555,5.203481 7.05555,3.352271 7.05555,1.500637 5.37942,0 3.52777,0 Z m 0,4.850686 c -0.73069,0 -1.32291,-0.592217 -1.32291,-1.322917 0,-0.730673 0.59222,-1.322917 1.32291,-1.322917 0.73069,0 1.32292,0.592244 1.32292,1.322917 0,0.7307 -0.59223,1.322917 -1.32292,1.322917 z"
       id="path46576"
       style="display:inline;fill:#ffffff;stroke-width:0.440973" />
  </g>
</svg>
