<?xml version="1.0" encoding="UTF-8" standalone="no"?>
<!-- Created with Inkscape (http://www.inkscape.org/) -->

<svg
   width="37"
   height="40"
   viewBox="0 0 9.7895836 10.583333"
   version="1.1"
   id="svg2295"
   xmlns="http://www.w3.org/2000/svg"
   xmlns:svg="http://www.w3.org/2000/svg">
  <defs
     id="defs2292" />
  <g
     id="layer1">
    <path
       d="M 1.14201,0.582957 2.396138,0 4.178112,3.479271 2.976459,4.070615 C 2.739215,4.625816 3.92852,6.843898 4.430347,6.880516 4.470037,6.854856 5.608188,6.294887 5.608188,6.294887 l 1.812401,3.497819 c 0,0 -1.218851,0.597058 -1.258538,0.615579 C 2.695559,11.991816 -2.260981,2.357014 1.14201,0.582957 Z m 0.851078,0.561816 -0.451115,0.22225 c -2.33451401,1.217956 1.841945,9.342014 4.254511,8.240024 L 6.224669,9.398027 5.223219,7.465245 4.770779,7.685723 C 3.37598,8.367898 1.127458,4.061354 2.541659,3.303323 L 2.98572,3.084169 Z M 5.446792,4.517761 6.733111,4.901406 C 6.831451,4.572 6.803671,4.205129 6.627278,3.879691 6.45133,3.553804 6.158963,3.329781 5.829998,3.231886 Z M 6.242309,1.845919 C 6.926257,2.049648 7.532595,2.514441 7.898604,3.191325 8.265051,3.868658 8.321939,4.630209 8.118208,5.313733 L 7.326662,5.077804 C 7.469979,4.596712 7.429407,4.060931 7.171439,3.584231 6.914351,3.107531 6.487488,2.780771 6.005946,2.637896 Z M 6.661232,0.440981 C 7.704135,0.751867 8.629295,1.4605 9.187569,2.494148 9.747165,3.527346 9.834036,4.689316 9.52315,5.732648 L 8.711758,5.491004 C 8.960466,4.655344 8.890794,3.72446 8.443648,2.897188 7.995618,2.069492 7.254782,1.501511 6.419138,1.252802 Z"
       id="path46335"
       style="display:inline;fill:#ffffff;stroke-width:0.440973" />
  </g>
</svg>
